# xmcd CD database file
#
# Track frame offsets:
#	150
#	11750
#	24800
#	36800
#	52550
#	71375
#	82175
#	92675
#	106775
#	115175
#	125075
#	134975
#	150425
#	160325
#	172625
#	184400
#	194375
#	214550
#	233825
#	249725
#
# Disc length: 3529 seconds
#
# Revision: 0
# Processed by: cddbd v1.5.2PL0 Copyright (c) Steve Scherf et al.
# Submitted via: CDex 1.81
#
DISCID=030dc714
DTITLE=Various Artist - Nick Erby's Country Classics
DYEAR=1990
DGENRE=Country
TTITLE0=Tammy Wynette/D.I.V.O.R.C.E
TTITLE1=Tammy Wynette/Stand By Your Man
TTITLE2=Tom T Hall/ The Year Clayton Delaney Died
TTITLE3=Tom T Hall/Old Dogs, Children and Watermelon Wine
TTITLE4=Tanya Tucker/Delta Dawn
TTITLE5=Leroy Van Dyke/Walk On By
TTITLE6=Leroy Van Dyke/The Auctioneer
TTITLE7=Bobby Bare/1960s Hits Medley
TTITLE8=Jimmy Dean/Big Bad John
TTITLE9=Porter Wagoner/Satisfied Mind
TTITLE10=George Jones/The Race Is On
TTITLE11=George Jones/He Stopped Loving Her Today
TTITLE12=Faron Young/Hello Walls
TTITLE13=Faron Young/Four In The Morning
TTITLE14=Lynn Anderson/Rose Garden
TTITLE15=Freddy Fender/Before The Next Teardrop Falls
TTITLE16=Nitty Gritty Dirt Band/Mr Bojangles
TTITLE17=Bellamy Brothers/If I Said You Had A Beautiful Body Would You Hold It Against Me
TTITLE18=Merle Haggard/Today I Started Loving You Again
TTITLE19=Merle Haggard/Okie From Muskogee
EXTD=YEAR: 1990
EXTT0=
EXTT1=
EXTT2=
EXTT3=
EXTT4=
EXTT5=
EXTT6=
EXTT7=
EXTT8=
EXTT9=
EXTT10=
EXTT11=
EXTT12=
EXTT13=
EXTT14=
EXTT15=
EXTT16=
EXTT17=
EXTT18=
EXTT19=
PLAYORDER=
